<svg width="52" height="52" viewBox="0 0 52 52" fill="none" xmlns="http://www.w3.org/2000/svg">
<path d="M34 22V19H21C19.3431 19 18 20.3431 18 22M22.8 25H30.8C31.9201 25 32.4802 25 32.908 24.782C33.2843 24.5903 33.5903 24.2843 33.782 23.908C34 23.4802 34 22.9201 34 21.8V8.2C34 7.07989 34 6.51984 33.782 6.09202C33.5903 5.71569 33.2843 5.40973 32.908 5.21799C32.4802 5 31.9201 5 30.8 5H22.8C21.1198 5 20.2798 5 19.638 5.32698C19.0735 5.6146 18.6146 6.07354 18.327 6.63803C18 7.27976 18 8.11984 18 9.8V20.2C18 21.8802 18 22.7202 18.327 23.362C18.6146 23.9265 19.0735 24.3854 19.638 24.673C20.2798 25 21.1198 25 22.8 25Z" stroke="black" stroke-width="2" stroke-linecap="round" stroke-linejoin="round"/>
<path d="M0.909091 44V32.3636H2.31818V42.75H7.72727V44H0.909091ZM9.72727 44V35.2727H11.0682V44H9.72727ZM10.4091 33.8182C10.1477 33.8182 9.92235 33.7292 9.73295 33.5511C9.54735 33.3731 9.45455 33.1591 9.45455 32.9091C9.45455 32.6591 9.54735 32.4451 9.73295 32.267C9.92235 32.089 10.1477 32 10.4091 32C10.6705 32 10.8939 32.089 11.0795 32.267C11.2689 32.4451 11.3636 32.6591 11.3636 32.9091C11.3636 33.1591 11.2689 33.3731 11.0795 33.5511C10.8939 33.7292 10.6705 33.8182 10.4091 33.8182ZM13.706 44V32.3636H15.0469V36.6591H15.1605C15.259 36.5076 15.3954 36.3144 15.5696 36.0795C15.7476 35.8409 16.0014 35.6288 16.331 35.4432C16.6643 35.2538 17.1151 35.1591 17.6832 35.1591C18.4181 35.1591 19.0658 35.3428 19.6264 35.7102C20.187 36.0777 20.6245 36.5985 20.9389 37.2727C21.2533 37.947 21.4105 38.7424 21.4105 39.6591C21.4105 40.5833 21.2533 41.3845 20.9389 42.0625C20.6245 42.7367 20.1889 43.2595 19.6321 43.6307C19.0753 43.9981 18.4332 44.1818 17.706 44.1818C17.1454 44.1818 16.6965 44.089 16.3594 43.9034C16.0223 43.714 15.7628 43.5 15.581 43.2614C15.3991 43.0189 15.259 42.8182 15.1605 42.6591H15.0014V44H13.706ZM15.0241 39.6364C15.0241 40.2955 15.1207 40.8769 15.3139 41.3807C15.5071 41.8807 15.7893 42.2727 16.1605 42.5568C16.5317 42.8371 16.9863 42.9773 17.5241 42.9773C18.0848 42.9773 18.5526 42.8295 18.9276 42.5341C19.3063 42.2348 19.5904 41.8333 19.7798 41.3295C19.973 40.822 20.0696 40.2576 20.0696 39.6364C20.0696 39.0227 19.9749 38.4697 19.7855 37.9773C19.5999 37.4811 19.3177 37.089 18.9389 36.8011C18.5639 36.5095 18.0923 36.3636 17.5241 36.3636C16.9787 36.3636 16.5204 36.5019 16.1491 36.7784C15.7779 37.0511 15.4976 37.4337 15.3082 37.9261C15.1188 38.4148 15.0241 38.9848 15.0241 39.6364ZM23.4616 44V35.2727H24.7571V36.5909H24.848C25.0071 36.1591 25.295 35.8087 25.7116 35.5398C26.1283 35.2708 26.598 35.1364 27.1207 35.1364C27.2192 35.1364 27.3423 35.1383 27.4901 35.142C27.6378 35.1458 27.7495 35.1515 27.8253 35.1591V36.5227C27.7798 36.5114 27.6757 36.4943 27.5128 36.4716C27.3537 36.4451 27.1851 36.4318 27.0071 36.4318C26.5829 36.4318 26.2041 36.5208 25.8707 36.6989C25.5412 36.8731 25.2798 37.1155 25.0866 37.4261C24.8973 37.733 24.8026 38.0833 24.8026 38.4773V44H23.4616ZM31.983 44.2045C31.4299 44.2045 30.928 44.1004 30.4773 43.892C30.0265 43.6799 29.6686 43.375 29.4034 42.9773C29.1383 42.5758 29.0057 42.0909 29.0057 41.5227C29.0057 41.0227 29.1042 40.6174 29.3011 40.3068C29.4981 39.9924 29.7614 39.7462 30.0909 39.5682C30.4205 39.3902 30.7841 39.2576 31.1818 39.1705C31.5833 39.0795 31.9867 39.0076 32.392 38.9545C32.9223 38.8864 33.3523 38.8352 33.6818 38.8011C34.0152 38.7633 34.2576 38.7008 34.4091 38.6136C34.5644 38.5265 34.642 38.375 34.642 38.1591V38.1136C34.642 37.553 34.4886 37.1174 34.1818 36.8068C33.8788 36.4962 33.4186 36.3409 32.8011 36.3409C32.161 36.3409 31.6591 36.4811 31.2955 36.7614C30.9318 37.0417 30.6761 37.3409 30.5284 37.6591L29.2557 37.2045C29.483 36.6742 29.786 36.2614 30.1648 35.9659C30.5473 35.6667 30.964 35.4583 31.4148 35.3409C31.8693 35.2197 32.3163 35.1591 32.7557 35.1591C33.036 35.1591 33.358 35.1932 33.7216 35.2614C34.089 35.3258 34.4432 35.4602 34.7841 35.6648C35.1288 35.8693 35.4148 36.178 35.642 36.5909C35.8693 37.0038 35.983 37.5568 35.983 38.25V44H34.642V42.8182H34.5739C34.483 43.0076 34.3314 43.2102 34.1193 43.4261C33.9072 43.642 33.625 43.8258 33.2727 43.9773C32.9205 44.1288 32.4905 44.2045 31.983 44.2045ZM32.1875 43C32.7178 43 33.1648 42.8958 33.5284 42.6875C33.8958 42.4792 34.1723 42.2102 34.358 41.8807C34.5473 41.5511 34.642 41.2045 34.642 40.8409V39.6136C34.5852 39.6818 34.4602 39.7443 34.267 39.8011C34.0777 39.8542 33.858 39.9015 33.608 39.9432C33.3617 39.9811 33.1212 40.0152 32.8864 40.0455C32.6553 40.072 32.4678 40.0947 32.3239 40.1136C31.9754 40.1591 31.6496 40.233 31.3466 40.3352C31.0473 40.4337 30.8049 40.5833 30.6193 40.7841C30.4375 40.9811 30.3466 41.25 30.3466 41.5909C30.3466 42.0568 30.5189 42.4091 30.8636 42.6477C31.2121 42.8826 31.6534 43 32.1875 43ZM38.4304 44V35.2727H39.7259V36.5909H39.8168C39.9759 36.1591 40.2637 35.8087 40.6804 35.5398C41.0971 35.2708 41.5668 35.1364 42.0895 35.1364C42.188 35.1364 42.3111 35.1383 42.4588 35.142C42.6065 35.1458 42.7183 35.1515 42.794 35.1591V36.5227C42.7486 36.5114 42.6444 36.4943 42.4815 36.4716C42.3224 36.4451 42.1539 36.4318 41.9759 36.4318C41.5516 36.4318 41.1728 36.5208 40.8395 36.6989C40.5099 36.8731 40.2486 37.1155 40.0554 37.4261C39.866 37.733 39.7713 38.0833 39.7713 38.4773V44H38.4304ZM45.5128 47.2727C45.2855 47.2727 45.0829 47.2538 44.9048 47.2159C44.7268 47.1818 44.6037 47.1477 44.5355 47.1136L44.8764 45.9318C45.2022 46.0152 45.4901 46.0455 45.7401 46.0227C45.9901 46 46.2116 45.8883 46.4048 45.6875C46.6018 45.4905 46.7817 45.1705 46.9446 44.7273L47.1946 44.0455L43.9673 35.2727H45.4219L47.831 42.2273H47.9219L50.331 35.2727H51.7855L48.081 45.2727C47.9143 45.7235 47.7079 46.0966 47.4616 46.392C47.2154 46.6913 46.9295 46.9129 46.6037 47.0568C46.2817 47.2008 45.9181 47.2727 45.5128 47.2727Z" fill="black"/>
</svg>
