<svg width="52" height="52" viewBox="0 0 52 52" fill="none" xmlns="http://www.w3.org/2000/svg">
<path d="M36 24V22C36 20.1362 34.7252 18.5701 33 18.126M29.5 6.29076C30.9659 6.88415 32 8.32131 32 10C32 11.6787 30.9659 13.1159 29.5 13.7092M31 24C31 22.1362 31 21.2044 30.6955 20.4693C30.2895 19.4892 29.5108 18.7105 28.5307 18.3045C27.7956 18 26.8638 18 25 18H22C20.1362 18 19.2044 18 18.4693 18.3045C17.4892 18.7105 16.7105 19.4892 16.3045 20.4693C16 21.2044 16 22.1362 16 24M27.5 10C27.5 12.2091 25.7091 14 23.5 14C21.2909 14 19.5 12.2091 19.5 10C19.5 7.79086 21.2909 6 23.5 6C25.7091 6 27.5 7.79086 27.5 10Z" stroke="black" stroke-width="2" stroke-linecap="round" stroke-linejoin="round"/>
<path d="M2.90909 44V32.3636H6.84091C7.75379 32.3636 8.5 32.5284 9.07955 32.858C9.66288 33.1837 10.0947 33.625 10.375 34.1818C10.6553 34.7386 10.7955 35.3598 10.7955 36.0455C10.7955 36.7311 10.6553 37.3542 10.375 37.9148C10.0985 38.4754 9.67046 38.9223 9.09091 39.2557C8.51136 39.5852 7.76894 39.75 6.86364 39.75H4.04545V38.5H6.81818C7.44318 38.5 7.94508 38.392 8.32386 38.1761C8.70265 37.9602 8.97727 37.6686 9.14773 37.3011C9.32197 36.9299 9.40909 36.5114 9.40909 36.0455C9.40909 35.5795 9.32197 35.1629 9.14773 34.7955C8.97727 34.428 8.70076 34.1402 8.31818 33.9318C7.93561 33.7197 7.42803 33.6136 6.79545 33.6136H4.31818V44H2.90909ZM12.8835 44V35.2727H14.179V36.5909H14.2699C14.429 36.1591 14.7169 35.8087 15.1335 35.5398C15.5502 35.2708 16.0199 35.1364 16.5426 35.1364C16.6411 35.1364 16.7642 35.1383 16.9119 35.142C17.0597 35.1458 17.1714 35.1515 17.2472 35.1591V36.5227C17.2017 36.5114 17.0975 36.4943 16.9347 36.4716C16.7756 36.4451 16.607 36.4318 16.429 36.4318C16.0047 36.4318 15.6259 36.5208 15.2926 36.6989C14.9631 36.8731 14.7017 37.1155 14.5085 37.4261C14.3191 37.733 14.2244 38.0833 14.2244 38.4773V44H12.8835ZM22.1165 44.1818C21.3286 44.1818 20.6373 43.9943 20.0426 43.6193C19.4517 43.2443 18.9896 42.7197 18.6562 42.0455C18.3267 41.3712 18.1619 40.5833 18.1619 39.6818C18.1619 38.7727 18.3267 37.9792 18.6562 37.3011C18.9896 36.6231 19.4517 36.0966 20.0426 35.7216C20.6373 35.3466 21.3286 35.1591 22.1165 35.1591C22.9044 35.1591 23.5938 35.3466 24.1847 35.7216C24.7794 36.0966 25.2415 36.6231 25.571 37.3011C25.9044 37.9792 26.071 38.7727 26.071 39.6818C26.071 40.5833 25.9044 41.3712 25.571 42.0455C25.2415 42.7197 24.7794 43.2443 24.1847 43.6193C23.5938 43.9943 22.9044 44.1818 22.1165 44.1818ZM22.1165 42.9773C22.715 42.9773 23.2074 42.8239 23.5938 42.517C23.9801 42.2102 24.2661 41.8068 24.4517 41.3068C24.6373 40.8068 24.7301 40.2652 24.7301 39.6818C24.7301 39.0985 24.6373 38.5549 24.4517 38.0511C24.2661 37.5473 23.9801 37.1402 23.5938 36.8295C23.2074 36.5189 22.715 36.3636 22.1165 36.3636C21.518 36.3636 21.0256 36.5189 20.6392 36.8295C20.2528 37.1402 19.9669 37.5473 19.7812 38.0511C19.5956 38.5549 19.5028 39.0985 19.5028 39.6818C19.5028 40.2652 19.5956 40.8068 19.7812 41.3068C19.9669 41.8068 20.2528 42.2102 20.6392 42.517C21.0256 42.8239 21.518 42.9773 22.1165 42.9773ZM32.0043 35.2727V36.4091H27.2997V35.2727H32.0043ZM28.7088 44V34.0682C28.7088 33.5682 28.8262 33.1515 29.0611 32.8182C29.2959 32.4848 29.6009 32.2348 29.9759 32.0682C30.3509 31.9015 30.7467 31.8182 31.1634 31.8182C31.4929 31.8182 31.7618 31.8447 31.9702 31.8977C32.1785 31.9508 32.3338 32 32.4361 32.0455L32.0497 33.2045C31.9815 33.1818 31.8868 33.1534 31.7656 33.1193C31.6482 33.0852 31.4929 33.0682 31.2997 33.0682C30.8565 33.0682 30.5365 33.1799 30.3395 33.4034C30.1463 33.6269 30.0497 33.9545 30.0497 34.3864V44H28.7088ZM33.8835 44V35.2727H35.2244V44H33.8835ZM34.5653 33.8182C34.304 33.8182 34.0786 33.7292 33.8892 33.5511C33.7036 33.3731 33.6108 33.1591 33.6108 32.9091C33.6108 32.6591 33.7036 32.4451 33.8892 32.267C34.0786 32.089 34.304 32 34.5653 32C34.8267 32 35.0502 32.089 35.2358 32.267C35.4252 32.4451 35.5199 32.6591 35.5199 32.9091C35.5199 33.1591 35.4252 33.3731 35.2358 33.5511C35.0502 33.7292 34.8267 33.8182 34.5653 33.8182ZM39.0213 32.3636V44H37.6804V32.3636H39.0213ZM45.1364 44.1818C44.2955 44.1818 43.5701 43.9962 42.9602 43.625C42.3542 43.25 41.8864 42.7273 41.5568 42.0568C41.2311 41.3826 41.0682 40.5985 41.0682 39.7045C41.0682 38.8106 41.2311 38.0227 41.5568 37.3409C41.8864 36.6553 42.3447 36.1212 42.9318 35.7386C43.5227 35.3523 44.2121 35.1591 45 35.1591C45.4545 35.1591 45.9034 35.2348 46.3466 35.3864C46.7898 35.5379 47.1932 35.7841 47.5568 36.125C47.9205 36.4621 48.2102 36.9091 48.4261 37.4659C48.642 38.0227 48.75 38.7083 48.75 39.5227V40.0909H42.0227V38.9318H47.3864C47.3864 38.4394 47.2879 38 47.0909 37.6136C46.8977 37.2273 46.6212 36.9223 46.2614 36.6989C45.9053 36.4754 45.4848 36.3636 45 36.3636C44.4659 36.3636 44.0038 36.4962 43.6136 36.7614C43.2273 37.0227 42.9299 37.3636 42.7216 37.7841C42.5133 38.2045 42.4091 38.6553 42.4091 39.1364V39.9091C42.4091 40.5682 42.5227 41.1269 42.75 41.5852C42.9811 42.0398 43.3011 42.3864 43.7102 42.625C44.1193 42.8598 44.5947 42.9773 45.1364 42.9773C45.4886 42.9773 45.8068 42.928 46.0909 42.8295C46.3788 42.7273 46.6269 42.5758 46.8352 42.375C47.0436 42.1705 47.2045 41.9167 47.3182 41.6136L48.6136 41.9773C48.4773 42.4167 48.2481 42.803 47.9261 43.1364C47.6042 43.4659 47.2064 43.7235 46.733 43.9091C46.2595 44.0909 45.7273 44.1818 45.1364 44.1818Z" fill="black"/>
</svg>
