<svg width="52" height="52" viewBox="0 0 52 52" fill="none" xmlns="http://www.w3.org/2000/svg">
<path d="M26 5V7M26 23V25M18 15H16M20.3141 9.31412L18.8999 7.8999M31.6859 9.31412L33.1001 7.8999M20.3141 20.69L18.8999 22.1042M31.6859 20.69L33.1001 22.1042M36 15H34M31 15C31 17.7614 28.7614 20 26 20C23.2386 20 21 17.7614 21 15C21 12.2386 23.2386 10 26 10C28.7614 10 31 12.2386 31 15Z" stroke="black" stroke-width="2" stroke-linecap="round" stroke-linejoin="round"/>
<path d="M3.27273 33.6136V32.3636H12V33.6136H8.34091V44H6.93182V33.6136H3.27273ZM16.2727 44.1818C15.4848 44.1818 14.7936 43.9943 14.1989 43.6193C13.608 43.2443 13.1458 42.7197 12.8125 42.0455C12.483 41.3712 12.3182 40.5833 12.3182 39.6818C12.3182 38.7727 12.483 37.9792 12.8125 37.3011C13.1458 36.6231 13.608 36.0966 14.1989 35.7216C14.7936 35.3466 15.4848 35.1591 16.2727 35.1591C17.0606 35.1591 17.75 35.3466 18.3409 35.7216C18.9356 36.0966 19.3977 36.6231 19.7273 37.3011C20.0606 37.9792 20.2273 38.7727 20.2273 39.6818C20.2273 40.5833 20.0606 41.3712 19.7273 42.0455C19.3977 42.7197 18.9356 43.2443 18.3409 43.6193C17.75 43.9943 17.0606 44.1818 16.2727 44.1818ZM16.2727 42.9773C16.8712 42.9773 17.3636 42.8239 17.75 42.517C18.1364 42.2102 18.4223 41.8068 18.608 41.3068C18.7936 40.8068 18.8864 40.2652 18.8864 39.6818C18.8864 39.0985 18.7936 38.5549 18.608 38.0511C18.4223 37.5473 18.1364 37.1402 17.75 36.8295C17.3636 36.5189 16.8712 36.3636 16.2727 36.3636C15.6742 36.3636 15.1818 36.5189 14.7955 36.8295C14.4091 37.1402 14.1231 37.5473 13.9375 38.0511C13.7519 38.5549 13.6591 39.0985 13.6591 39.6818C13.6591 40.2652 13.7519 40.8068 13.9375 41.3068C14.1231 41.8068 14.4091 42.2102 14.7955 42.517C15.1818 42.8239 15.6742 42.9773 16.2727 42.9773ZM25.5696 44.1818C24.8423 44.1818 24.2003 43.9981 23.6435 43.6307C23.0866 43.2595 22.651 42.7367 22.3366 42.0625C22.0223 41.3845 21.8651 40.5833 21.8651 39.6591C21.8651 38.7424 22.0223 37.947 22.3366 37.2727C22.651 36.5985 23.0885 36.0777 23.6491 35.7102C24.2098 35.3428 24.8575 35.1591 25.5923 35.1591C26.1605 35.1591 26.6094 35.2538 26.9389 35.4432C27.2723 35.6288 27.526 35.8409 27.7003 36.0795C27.8783 36.3144 28.0166 36.5076 28.1151 36.6591H28.2287V32.3636H29.5696V44H28.2741V42.6591H28.1151C28.0166 42.8182 27.8764 43.0189 27.6946 43.2614C27.5128 43.5 27.2533 43.714 26.9162 43.9034C26.5791 44.089 26.1302 44.1818 25.5696 44.1818ZM25.7514 42.9773C26.2893 42.9773 26.7438 42.8371 27.1151 42.5568C27.4863 42.2727 27.7685 41.8807 27.9616 41.3807C28.1548 40.8769 28.2514 40.2955 28.2514 39.6364C28.2514 38.9848 28.1567 38.4148 27.9673 37.9261C27.7779 37.4337 27.4976 37.0511 27.1264 36.7784C26.7552 36.5019 26.2969 36.3636 25.7514 36.3636C25.1832 36.3636 24.7098 36.5095 24.331 36.8011C23.956 37.089 23.6738 37.4811 23.4844 37.9773C23.2988 38.4697 23.206 39.0227 23.206 39.6364C23.206 40.2576 23.3007 40.822 23.4901 41.3295C23.6832 41.8333 23.9673 42.2348 24.3423 42.5341C24.7211 42.8295 25.1908 42.9773 25.7514 42.9773ZM34.7798 44.2045C34.2268 44.2045 33.7249 44.1004 33.2741 43.892C32.8234 43.6799 32.4654 43.375 32.2003 42.9773C31.9351 42.5758 31.8026 42.0909 31.8026 41.5227C31.8026 41.0227 31.901 40.6174 32.098 40.3068C32.295 39.9924 32.5582 39.7462 32.8878 39.5682C33.2173 39.3902 33.581 39.2576 33.9787 39.1705C34.3802 39.0795 34.7836 39.0076 35.1889 38.9545C35.7192 38.8864 36.1491 38.8352 36.4787 38.8011C36.812 38.7633 37.0545 38.7008 37.206 38.6136C37.3613 38.5265 37.4389 38.375 37.4389 38.1591V38.1136C37.4389 37.553 37.2855 37.1174 36.9787 36.8068C36.6757 36.4962 36.2154 36.3409 35.598 36.3409C34.9579 36.3409 34.456 36.4811 34.0923 36.7614C33.7287 37.0417 33.473 37.3409 33.3253 37.6591L32.0526 37.2045C32.2798 36.6742 32.5829 36.2614 32.9616 35.9659C33.3442 35.6667 33.7609 35.4583 34.2116 35.3409C34.6662 35.2197 35.1132 35.1591 35.5526 35.1591C35.8329 35.1591 36.1548 35.1932 36.5185 35.2614C36.8859 35.3258 37.2401 35.4602 37.581 35.6648C37.9257 35.8693 38.2116 36.178 38.4389 36.5909C38.6662 37.0038 38.7798 37.5568 38.7798 38.25V44H37.4389V42.8182H37.3707C37.2798 43.0076 37.1283 43.2102 36.9162 43.4261C36.7041 43.642 36.4219 43.8258 36.0696 43.9773C35.7173 44.1288 35.2874 44.2045 34.7798 44.2045ZM34.9844 43C35.5147 43 35.9616 42.8958 36.3253 42.6875C36.6927 42.4792 36.9692 42.2102 37.1548 41.8807C37.3442 41.5511 37.4389 41.2045 37.4389 40.8409V39.6136C37.3821 39.6818 37.2571 39.7443 37.0639 39.8011C36.8745 39.8542 36.6548 39.9015 36.4048 39.9432C36.1586 39.9811 35.9181 40.0152 35.6832 40.0455C35.4522 40.072 35.2647 40.0947 35.1207 40.1136C34.7723 40.1591 34.4465 40.233 34.1435 40.3352C33.8442 40.4337 33.6018 40.5833 33.4162 40.7841C33.2344 40.9811 33.1435 41.25 33.1435 41.5909C33.1435 42.0568 33.3158 42.4091 33.6605 42.6477C34.009 42.8826 34.4503 43 34.9844 43ZM41.7784 47.2727C41.5511 47.2727 41.3485 47.2538 41.1705 47.2159C40.9924 47.1818 40.8693 47.1477 40.8011 47.1136L41.142 45.9318C41.4678 46.0152 41.7557 46.0455 42.0057 46.0227C42.2557 46 42.4773 45.8883 42.6705 45.6875C42.8674 45.4905 43.0473 45.1705 43.2102 44.7273L43.4602 44.0455L40.233 35.2727H41.6875L44.0966 42.2273H44.1875L46.5966 35.2727H48.0511L44.3466 45.2727C44.1799 45.7235 43.9735 46.0966 43.7273 46.392C43.4811 46.6913 43.1951 46.9129 42.8693 47.0568C42.5473 47.2008 42.1837 47.2727 41.7784 47.2727Z" fill="black"/>
</svg>
