<svg width="99" height="14" viewBox="0 0 99 14" fill="none" xmlns="http://www.w3.org/2000/svg">
<path d="M3.362 13.5H0.302C0.336 12.888 0.353 12.2647 0.353 11.63C0.364333 10.9953 0.37 10.3097 0.37 9.573C0.37 8.83633 0.37 8.02033 0.37 7.125C0.37 5.77633 0.37 4.592 0.37 3.572C0.37 2.552 0.347333 1.61133 0.302 0.749999H3.362C3.35067 1.09 3.33933 1.49233 3.328 1.957C3.31667 2.41033 3.30533 2.892 3.294 3.402C3.294 3.90067 3.294 4.39367 3.294 4.881C3.294 5.36833 3.294 5.81033 3.294 6.207C3.294 6.59233 3.294 6.904 3.294 7.142L2.75 5.833C3.48667 5.867 4.29133 5.88967 5.164 5.901C6.048 5.901 6.932 5.901 7.816 5.901C8.67733 5.901 9.53867 5.901 10.4 5.901C11.2727 5.88967 12.066 5.867 12.78 5.833L12.338 7.142C12.338 6.904 12.338 6.59233 12.338 6.207C12.338 5.81033 12.3323 5.36833 12.321 4.881C12.321 4.39367 12.3153 3.90067 12.304 3.402C12.304 2.892 12.2983 2.41033 12.287 1.957C12.287 1.49233 12.2757 1.09 12.253 0.749999H15.33C15.296 1.61133 15.2733 2.552 15.262 3.572C15.2507 4.592 15.245 5.77633 15.245 7.125C15.245 8.02033 15.245 8.83633 15.245 9.573C15.2563 10.3097 15.2677 10.9953 15.279 11.63C15.2903 12.2647 15.3017 12.888 15.313 13.5H12.253C12.2757 13.1487 12.287 12.7463 12.287 12.293C12.2983 11.8283 12.304 11.3523 12.304 10.865C12.3153 10.3777 12.321 9.90167 12.321 9.437C12.3323 8.97233 12.338 8.55867 12.338 8.196C12.338 7.822 12.338 7.52167 12.338 7.295L12.78 8.502C12.066 8.468 11.2727 8.451 10.4 8.451C9.53867 8.451 8.67733 8.451 7.816 8.451C6.932 8.451 6.048 8.451 5.164 8.451C4.28 8.451 3.47533 8.468 2.75 8.502L3.294 7.295C3.294 7.52167 3.294 7.822 3.294 8.196C3.294 8.57 3.294 8.98933 3.294 9.454C3.294 9.90733 3.294 10.3833 3.294 10.882C3.30533 11.3693 3.31667 11.8397 3.328 12.293C3.33933 12.735 3.35067 13.1373 3.362 13.5ZM21.4454 8.043V6.071C22.0914 6.071 22.777 6.071 23.5024 6.071C24.239 6.071 24.9814 6.071 25.7294 6.071C26.4887 6.05967 27.2367 6.054 27.9734 6.054C28.71 6.054 29.4127 6.054 30.0814 6.054C30.75 6.04267 31.3564 6.03133 31.9004 6.02C31.9004 6.16733 31.8947 6.377 31.8834 6.649C31.8834 6.90967 31.8834 7.17033 31.8834 7.431C31.8834 7.69167 31.8834 7.91267 31.8834 8.094C31.3507 8.08267 30.75 8.077 30.0814 8.077C29.4127 8.06567 28.71 8.06 27.9734 8.06C27.2367 8.04867 26.4887 8.043 25.7294 8.043C24.97 8.043 24.2277 8.043 23.5024 8.043C22.777 8.043 22.0914 8.043 21.4454 8.043ZM32.0874 13.5H18.9124C18.935 12.9447 18.9464 12.3497 18.9464 11.715C18.9577 11.0803 18.9634 10.3833 18.9634 9.624C18.9634 8.86467 18.9634 8.03167 18.9634 7.125C18.9634 6.445 18.9634 5.81033 18.9634 5.221C18.9634 4.62033 18.9577 4.05367 18.9464 3.521C18.9464 2.98833 18.9407 2.49533 18.9294 2.042C18.9294 1.57733 18.9237 1.14667 18.9124 0.749999H32.0874C32.076 0.874666 32.0704 1.039 32.0704 1.243C32.0704 1.447 32.0704 1.63967 32.0704 1.821C32.0704 2.00233 32.0704 2.20633 32.0704 2.433C32.0704 2.65967 32.076 2.841 32.0874 2.977C31.3847 2.96567 30.6537 2.96 29.8944 2.96C29.135 2.96 28.3644 2.96 27.5824 2.96C26.8117 2.94867 26.0524 2.943 25.3044 2.943C24.5677 2.93167 23.8707 2.926 23.2134 2.926C22.556 2.926 21.961 2.926 21.4284 2.926L21.9044 1.362C21.9044 1.58867 21.9044 1.87767 21.9044 2.229C21.9044 2.58033 21.9044 2.96567 21.9044 3.385C21.9044 3.80433 21.9044 4.235 21.9044 4.677C21.9044 5.10767 21.9044 5.51567 21.9044 5.901C21.9044 6.28633 21.9044 6.62067 21.9044 6.904C21.9044 7.36867 21.9044 7.839 21.9044 8.315C21.9044 8.77967 21.9044 9.23867 21.9044 9.692C21.9044 10.134 21.9044 10.5533 21.9044 10.95C21.9044 11.3467 21.9044 11.7093 21.9044 12.038C21.9044 12.3553 21.9044 12.6217 21.9044 12.837L21.4454 11.205C21.9667 11.205 22.5617 11.205 23.2304 11.205C23.899 11.205 24.6074 11.205 25.3554 11.205C26.1147 11.1937 26.8797 11.188 27.6504 11.188C28.4324 11.188 29.1974 11.188 29.9454 11.188C30.7047 11.1767 31.4187 11.1653 32.0874 11.154C32.076 11.3013 32.0704 11.4883 32.0704 11.715C32.0704 11.9417 32.0704 12.157 32.0704 12.361C32.0704 12.5423 32.0704 12.7407 32.0704 12.956C32.0704 13.1713 32.076 13.3527 32.0874 13.5ZM36.9961 8.604C37.3248 8.604 37.7101 8.60967 38.1521 8.621C38.5941 8.621 39.0531 8.62667 39.5291 8.638C40.0164 8.638 40.4868 8.64367 40.9401 8.655C41.4048 8.655 41.8184 8.655 42.1811 8.655C42.5438 8.655 42.9518 8.655 43.4051 8.655C43.8584 8.64367 44.3231 8.638 44.7991 8.638C45.2751 8.62667 45.7341 8.621 46.1761 8.621C46.6294 8.60967 47.0261 8.604 47.3661 8.604L47.4851 10.712C47.0318 10.712 46.5671 10.712 46.0911 10.712C45.6264 10.7007 45.1618 10.695 44.6971 10.695C44.2438 10.6837 43.8018 10.678 43.3711 10.678C42.9404 10.678 42.5438 10.678 42.1811 10.678C41.8411 10.678 41.4558 10.678 41.0251 10.678C40.5944 10.678 40.1411 10.6837 39.6651 10.695C39.2004 10.695 38.7301 10.7007 38.2541 10.712C37.7894 10.712 37.3531 10.712 36.9451 10.712L36.9961 8.604ZM51.0721 13.5H47.4681C47.4114 13.3073 47.2981 13.0297 47.1281 12.667C46.9694 12.3043 46.7768 11.8793 46.5501 11.392C46.3348 10.8933 46.0968 10.3607 45.8361 9.794C45.5754 9.22733 45.3034 8.64933 45.0201 8.06C44.7368 7.47067 44.4591 6.89267 44.1871 6.326C43.9151 5.75933 43.6601 5.23233 43.4221 4.745C43.1614 4.235 42.9404 3.78733 42.7591 3.402C42.5778 3.01667 42.4191 2.68233 42.2831 2.399C42.1584 2.11567 42.0451 1.872 41.9431 1.668L42.7931 2.059H41.6711L42.5381 1.651C42.4361 1.86633 42.3171 2.11567 42.1811 2.399C42.0451 2.68233 41.8864 3.02233 41.7051 3.419C41.5238 3.80433 41.3028 4.26333 41.0421 4.796C40.7701 5.374 40.4698 6.003 40.1411 6.683C39.8124 7.35167 39.4781 8.03167 39.1381 8.723C38.8094 9.403 38.4978 10.0547 38.2031 10.678C37.9084 11.3013 37.6478 11.8623 37.4211 12.361C37.1944 12.8483 37.0244 13.228 36.9111 13.5H33.5621C33.8228 13.058 34.1118 12.5367 34.4291 11.936C34.7578 11.324 35.1034 10.6667 35.4661 9.964C35.8288 9.26133 36.1971 8.54167 36.5711 7.805C36.9564 7.057 37.3304 6.326 37.6931 5.612C38.0558 4.898 38.3901 4.22367 38.6961 3.589C39.0134 2.95433 39.2854 2.39333 39.5121 1.906C39.7501 1.40733 39.9371 1.022 40.0731 0.749999H44.4591C44.6064 1.056 44.8048 1.45833 45.0541 1.957C45.3034 2.44433 45.5811 3.00533 45.8871 3.64C46.2044 4.26333 46.5444 4.92633 46.9071 5.629C47.2698 6.33167 47.6381 7.05133 48.0121 7.788C48.3861 8.51333 48.7544 9.22733 49.1171 9.93C49.4911 10.6213 49.8424 11.273 50.1711 11.885C50.4998 12.4857 50.8001 13.024 51.0721 13.5ZM52.7139 0.749999H61.3669C62.2509 0.749999 63.0273 0.823666 63.6959 0.970999C64.3759 1.11833 64.9426 1.35067 65.3959 1.668C65.8606 1.974 66.2119 2.365 66.4499 2.841C66.6879 3.317 66.8069 3.88933 66.8069 4.558C66.8069 5.19267 66.7049 5.74233 66.5009 6.207C66.2969 6.67167 65.9796 7.06267 65.5489 7.38C65.1183 7.686 64.5686 7.91833 63.8999 8.077C63.2426 8.23567 62.4549 8.32633 61.5369 8.349L63.1179 7.822V8.604L61.5539 8.162C62.3813 8.21867 63.0783 8.28667 63.6449 8.366C64.2116 8.44533 64.6876 8.57567 65.0729 8.757C65.4583 8.93833 65.7756 9.199 66.0249 9.539C66.2856 9.879 66.5179 10.3323 66.7219 10.899C66.8579 11.2957 66.9826 11.6583 67.0959 11.987C67.2093 12.3157 67.3113 12.6103 67.4019 12.871C67.5039 13.1203 67.5946 13.33 67.6739 13.5H64.9539C64.7726 13.5 64.6309 13.4717 64.5289 13.415C64.4383 13.3583 64.3589 13.2337 64.2909 13.041C64.2229 12.8483 64.1323 12.5537 64.0189 12.157C63.8489 11.681 63.6959 11.273 63.5599 10.933C63.4239 10.5817 63.2709 10.2983 63.1009 10.083C62.9423 9.85633 62.7553 9.68067 62.5399 9.556C62.3246 9.42 62.0526 9.32933 61.7239 9.284C61.4066 9.22733 61.0156 9.199 60.5509 9.199C60.2223 9.199 59.9049 9.199 59.5989 9.199C59.2929 9.199 58.9869 9.199 58.6809 9.199C58.3749 9.199 58.0519 9.199 57.7119 9.199C57.3833 9.199 57.0263 9.20467 56.6409 9.216C56.2669 9.216 55.8589 9.216 55.4169 9.216L55.3829 7.04C55.5529 7.04 55.8136 7.04567 56.1649 7.057C56.5163 7.06833 56.9356 7.07967 57.4229 7.091C57.9103 7.091 58.4373 7.091 59.0039 7.091C59.5706 7.091 60.1599 7.091 60.7719 7.091C61.5199 7.091 62.1263 7.01167 62.5909 6.853C63.0669 6.683 63.4126 6.43933 63.6279 6.122C63.8546 5.80467 63.9679 5.425 63.9679 4.983C63.9679 4.59767 63.9056 4.27467 63.7809 4.014C63.6563 3.75333 63.4579 3.54933 63.1859 3.402C62.9253 3.25467 62.5853 3.147 62.1659 3.079C61.7466 3.011 61.2366 2.977 60.6359 2.977C60.4433 2.977 60.1996 2.977 59.9049 2.977C59.6103 2.977 59.2816 2.98267 58.9189 2.994C58.5563 2.994 58.1879 2.99967 57.8139 3.011C57.4399 3.011 57.0773 3.01667 56.7259 3.028C56.3746 3.028 56.0573 3.03367 55.7739 3.045C55.4906 3.045 55.2639 3.05067 55.0939 3.062L55.6039 1.923C55.5926 3.045 55.5869 4.167 55.5869 5.289C55.5869 6.411 55.5926 7.48767 55.6039 8.519C55.6153 9.539 55.6323 10.4797 55.6549 11.341C55.6889 12.191 55.7343 12.9107 55.7909 13.5H52.7139C52.7253 12.8767 52.7309 12.2533 52.7309 11.63C52.7423 10.9953 52.7479 10.3153 52.7479 9.59C52.7593 8.85333 52.7649 8.03167 52.7649 7.125C52.7649 5.77633 52.7593 4.609 52.7479 3.623C52.7479 2.62567 52.7366 1.668 52.7139 0.749999ZM73.7034 1.889H76.5764C76.5764 2.76167 76.5764 3.62867 76.5764 4.49C76.5764 5.34 76.5764 6.16733 76.5764 6.972C76.5877 7.76533 76.5934 8.51333 76.5934 9.216C76.5934 9.91867 76.5934 10.559 76.5934 11.137C76.6047 11.715 76.6104 12.208 76.6104 12.616C76.6217 13.0127 76.6274 13.313 76.6274 13.517C76.5027 13.4943 76.3497 13.483 76.1684 13.483C75.987 13.483 75.8057 13.483 75.6244 13.483C75.443 13.483 75.2787 13.483 75.1314 13.483C74.984 13.483 74.8197 13.483 74.6384 13.483C74.4684 13.483 74.2927 13.483 74.1114 13.483C73.9414 13.483 73.7827 13.4943 73.6354 13.517C73.6467 13.313 73.6524 13.0127 73.6524 12.616C73.6637 12.208 73.6694 11.7207 73.6694 11.154C73.6807 10.576 73.6864 9.93567 73.6864 9.233C73.6864 8.53033 73.6864 7.77667 73.6864 6.972C73.6977 6.16733 73.7034 5.34 73.7034 4.49C73.7034 3.62867 73.7034 2.76167 73.7034 1.889ZM68.4164 0.749999H81.8464C81.835 0.908666 81.8294 1.10133 81.8294 1.328C81.8294 1.54333 81.8294 1.76433 81.8294 1.991C81.8294 2.18367 81.8294 2.399 81.8294 2.637C81.8294 2.875 81.835 3.08467 81.8464 3.266C81.0304 3.24333 80.22 3.232 79.4154 3.232C78.622 3.232 77.8627 3.232 77.1374 3.232C76.4234 3.22067 75.7604 3.215 75.1484 3.215C74.2304 3.215 73.1877 3.22067 72.0204 3.232C70.853 3.232 69.6517 3.24333 68.4164 3.266C68.4277 3.08467 68.4334 2.88067 68.4334 2.654C68.4334 2.416 68.4334 2.195 68.4334 1.991C68.4334 1.77567 68.4334 1.56033 68.4334 1.345C68.4334 1.11833 68.4277 0.92 68.4164 0.749999ZM87.0173 13.5H83.9573C83.9913 12.888 84.0083 12.2647 84.0083 11.63C84.0196 10.9953 84.0253 10.3097 84.0253 9.573C84.0253 8.83633 84.0253 8.02033 84.0253 7.125C84.0253 5.77633 84.0253 4.592 84.0253 3.572C84.0253 2.552 84.0026 1.61133 83.9573 0.749999H87.0173C87.0059 1.09 86.9946 1.49233 86.9833 1.957C86.9719 2.41033 86.9606 2.892 86.9493 3.402C86.9493 3.90067 86.9493 4.39367 86.9493 4.881C86.9493 5.36833 86.9493 5.81033 86.9493 6.207C86.9493 6.59233 86.9493 6.904 86.9493 7.142L86.4053 5.833C87.1419 5.867 87.9466 5.88967 88.8193 5.901C89.7033 5.901 90.5873 5.901 91.4713 5.901C92.3326 5.901 93.1939 5.901 94.0553 5.901C94.9279 5.88967 95.7213 5.867 96.4353 5.833L95.9933 7.142C95.9933 6.904 95.9933 6.59233 95.9933 6.207C95.9933 5.81033 95.9876 5.36833 95.9763 4.881C95.9763 4.39367 95.9706 3.90067 95.9593 3.402C95.9593 2.892 95.9536 2.41033 95.9423 1.957C95.9423 1.49233 95.9309 1.09 95.9083 0.749999H98.9853C98.9513 1.61133 98.9286 2.552 98.9173 3.572C98.9059 4.592 98.9003 5.77633 98.9003 7.125C98.9003 8.02033 98.9003 8.83633 98.9003 9.573C98.9116 10.3097 98.9229 10.9953 98.9343 11.63C98.9456 12.2647 98.9569 12.888 98.9683 13.5H95.9083C95.9309 13.1487 95.9423 12.7463 95.9423 12.293C95.9536 11.8283 95.9593 11.3523 95.9593 10.865C95.9706 10.3777 95.9763 9.90167 95.9763 9.437C95.9876 8.97233 95.9933 8.55867 95.9933 8.196C95.9933 7.822 95.9933 7.52167 95.9933 7.295L96.4353 8.502C95.7213 8.468 94.9279 8.451 94.0553 8.451C93.1939 8.451 92.3326 8.451 91.4713 8.451C90.5873 8.451 89.7033 8.451 88.8193 8.451C87.9353 8.451 87.1306 8.468 86.4053 8.502L86.9493 7.295C86.9493 7.52167 86.9493 7.822 86.9493 8.196C86.9493 8.57 86.9493 8.98933 86.9493 9.454C86.9493 9.90733 86.9493 10.3833 86.9493 10.882C86.9606 11.3693 86.9719 11.8397 86.9833 12.293C86.9946 12.735 87.0059 13.1373 87.0173 13.5Z" fill="#F54701"/>
</svg>
